<svg width="119" height="28" viewBox="0 0 119 28" fill="none" xmlns="http://www.w3.org/2000/svg">
<g clip-path="url(#clip0_1_1560)">
<path d="M9.10506 11.312C8.84906 10.048 7.80906 8.416 5.13706 8.416C3.02506 8.416 1.28106 9.984 1.28106 11.888C1.28106 13.584 2.43306 14.72 4.16106 15.072L5.76106 15.408C6.73706 15.616 7.28106 16.208 7.28106 16.944C7.28106 17.824 6.57706 18.512 5.21706 18.512C3.58506 18.512 2.73706 17.424 2.62506 16.24L0.833063 16.752C1.00906 18.384 2.33706 20.24 5.21706 20.24C7.80906 20.24 9.23306 18.56 9.23306 16.8C9.23306 15.2 8.16106 13.936 6.16106 13.536L4.52906 13.2C3.64906 13.008 3.20106 12.464 3.20106 11.744C3.20106 10.88 4.00106 10.112 5.15306 10.112C6.67306 10.112 7.26506 11.152 7.37706 11.856L9.10506 11.312ZM12.8603 20V12.208H11.0203V20H12.8603ZM10.7323 9.472C10.7323 10.144 11.2763 10.672 11.9323 10.672C12.6043 10.672 13.1483 10.144 13.1483 9.472C13.1483 8.8 12.6043 8.256 11.9323 8.256C11.2763 8.256 10.7323 8.8 10.7323 9.472ZM14.6947 20.432C14.9027 22 16.3427 23.28 18.4067 23.28C21.3347 23.28 22.4067 21.344 22.4067 19.264V12.208H20.6147V13.2C20.2787 12.56 19.5267 12.064 18.3107 12.064C16.1667 12.064 14.7107 13.776 14.7107 15.856C14.7107 18.048 16.2307 19.648 18.3107 19.648C19.4467 19.648 20.2307 19.12 20.5667 18.512V19.328C20.5667 20.912 19.8307 21.664 18.3587 21.664C17.2867 21.664 16.5347 20.944 16.4067 19.984L14.6947 20.432ZM18.6147 18.064C17.3987 18.064 16.5827 17.216 16.5827 15.856C16.5827 14.528 17.4307 13.664 18.6147 13.664C19.7667 13.664 20.6147 14.528 20.6147 15.856C20.6147 17.2 19.7987 18.064 18.6147 18.064ZM26.5326 15.504C26.5326 14.48 27.0926 13.664 28.1486 13.664C29.3166 13.664 29.7486 14.432 29.7486 15.392V20H31.6046V15.072C31.6046 13.36 30.6926 11.984 28.7886 11.984C27.9246 11.984 26.9966 12.352 26.4846 13.248V12.208H24.6766V20H26.5326V15.504ZM38.8267 19.136C38.8267 19.456 38.8587 19.824 38.8907 20H40.6667C40.6347 19.712 40.5867 19.216 40.5867 18.576V12.208H38.7307V16.816C38.7307 17.84 38.1707 18.56 37.0987 18.56C35.9787 18.56 35.5307 17.744 35.5307 16.784V12.208H33.6747V17.12C33.6747 18.848 34.7627 20.224 36.6187 20.224C37.5307 20.224 38.4427 19.84 38.8267 19.136ZM44.8291 23.04V19.12C45.2291 19.712 46.0771 20.192 47.1971 20.192C49.4371 20.192 50.8611 18.432 50.8611 16.096C50.8611 13.792 49.5651 12.032 47.2611 12.032C46.0611 12.032 45.1651 12.592 44.7811 13.264V12.208H42.9891V23.04H44.8291ZM49.0051 16.096C49.0051 17.584 48.1411 18.544 46.9091 18.544C45.6931 18.544 44.8131 17.584 44.8131 16.096C44.8131 14.64 45.6931 13.68 46.9091 13.68C48.1571 13.68 49.0051 14.64 49.0051 16.096ZM58.4701 15.504C58.4701 14.48 59.0301 13.664 60.0861 13.664C61.2541 13.664 61.6861 14.432 61.6861 15.392V20H63.5421V15.072C63.5421 13.36 62.6301 11.984 60.7261 11.984C59.8621 11.984 58.9341 12.352 58.4221 13.248V12.208H56.6141V20H58.4701V15.504ZM69.2256 18.576C68.0896 18.576 67.0496 17.712 67.0496 16.096C67.0496 14.48 68.0896 13.648 69.2256 13.648C70.3776 13.648 71.4016 14.48 71.4016 16.096C71.4016 17.728 70.3776 18.576 69.2256 18.576ZM69.2256 11.968C66.9056 11.968 65.1936 13.712 65.1936 16.096C65.1936 18.496 66.9056 20.24 69.2256 20.24C71.5616 20.24 73.2736 18.496 73.2736 16.096C73.2736 13.712 71.5616 11.968 69.2256 11.968ZM79.2957 12.208L77.4557 17.6L75.8717 12.208H73.8877L76.4157 20H78.3197L80.2077 14.4L82.1437 20H83.9997L86.4957 12.208H84.6077L83.0557 17.6L81.2157 12.208H79.2957Z" fill="#2F70FE"/>
<g clip-path="url(#clip1_1_1560)">
<path d="M109.5 23.5002C109.372 23.5002 109.244 23.4512 109.146 23.3542C108.951 23.1592 108.951 22.8422 109.146 22.6472L117.793 14.0002L109.147 5.35423C108.952 5.15923 108.952 4.84223 109.147 4.64723C109.342 4.45223 109.659 4.45223 109.854 4.64723L118.854 13.6472C119.049 13.8422 119.049 14.1592 118.854 14.3542L109.854 23.3542C109.756 23.4512 109.628 23.5002 109.5 23.5002Z" fill="#2F70FE"/>
<path d="M118.5 14.5H95.5C95.224 14.5 95 14.276 95 14C95 13.724 95.224 13.5 95.5 13.5H118.5C118.776 13.5 119 13.724 119 14C119 14.276 118.776 14.5 118.5 14.5Z" fill="#2F70FE"/>
</g>
</g>
<defs>
<clipPath id="clip0_1_1560">
<rect width="119" height="28" fill="white"/>
</clipPath>
<clipPath id="clip1_1_1560">
<rect width="24" height="24" fill="white" transform="translate(95 2)"/>
</clipPath>
</defs>
</svg>
