<svg width="157" height="226" viewBox="0 0 157 226" fill="none" xmlns="http://www.w3.org/2000/svg">
<g style="mix-blend-mode:luminosity" clip-path="url(#clip0_15_3)">
<path d="M27.6772 206.726C27.6772 206.726 23.1457 218.317 23.6789 218.85C24.212 219.427 28.7434 219.605 29.1432 219.605C29.4986 219.605 38.9613 219.605 38.9613 219.605C38.9613 219.605 42.6042 211.167 42.2932 210.901C41.9822 210.678 34.1189 205.705 34.1189 205.705L27.6772 206.726Z" fill="#1631A4"/>
<path d="M37.3175 210.856C37.3175 210.856 30.165 211.833 23.9898 207.925C23.9898 207.925 33.3192 154.145 33.8079 151.17C34.2965 148.194 33.3192 110.446 33.3192 110.446L47.5798 106.094C47.5798 106.094 50.6452 164.093 50.4675 163.56C50.3342 163.072 37.3175 210.856 37.3175 210.856Z" fill="#1631A4"/>
<path d="M7.55237 137.847C7.50794 137.669 5.19781 120.039 20.6579 117.374C25.056 116.619 28.8322 117.374 31.9864 119.595C37.8062 123.68 39.139 131.319 39.1834 131.674L36.5623 132.118C36.4734 131.541 33.9412 117.774 21.0577 119.994C8.1299 122.215 10.0402 136.87 10.1291 137.492L7.55237 137.847Z" fill="#01008A"/>
<path d="M52.5111 13.2785C52.5111 13.2785 51.3116 21.7607 48.8237 26.8678C46.3359 31.9749 45.092 31.4864 44.47 31.4864C43.8481 31.4864 31.8087 24.5141 31.8087 24.5141L28.6101 13.5894L37.9395 7.2832L45.7584 9.05958L52.5111 13.2785Z" fill="white"/>
<path d="M43.0484 30.8203C43.0484 30.8203 40.2496 30.9535 39.4499 35.6165C38.6947 40.2795 38.6947 40.2795 38.6947 40.2795L27.766 36.8156L33.0526 23.626L43.0484 30.8203Z" fill="white"/>
<path d="M36.5623 17.8084C36.5623 17.8084 35.4516 13.8559 32.8749 15.1882C30.2983 16.5205 33.3636 22.3826 35.1406 21.894L32.5195 24.9583L31.4089 27.7117C31.4089 27.7117 23.1902 21.0059 23.9454 13.7227C24.7006 6.48395 29.0543 6.61717 29.0543 6.61717C29.0543 6.61717 28.1214 1.86536 34.1633 0.222204C40.2052 -1.42095 57.1757 7.683 61.4406 5.3293C61.4406 5.3293 56.2872 20.0733 48.5127 15.3214C40.7383 10.5696 36.5623 17.8084 36.5623 17.8084Z" fill="#231F20"/>
<path d="M27.766 36.8157L28.1214 32.8188L41.4935 36.8157L42.2487 42.8998L27.766 36.8157Z" fill="#E5E5E6"/>
<path d="M64.9946 81.4027C64.9946 81.4027 69.5704 80.1149 71.1698 79.2711C72.7691 78.3829 74.0574 77.3171 74.8127 77.8056C75.5679 78.2941 72.5914 80.781 72.3693 81.003C72.1471 81.2251 78.6333 81.2695 79.5218 81.4027C80.4103 81.5804 83.298 82.2909 83.298 82.8238C83.298 83.3568 79.6995 89.7517 78.8554 90.1958C77.9669 90.6399 68.9929 90.4179 68.371 89.9294C67.749 89.4853 62.8622 87.9754 62.8622 87.9754C62.8622 87.9754 64.7281 81.4916 64.9946 81.4027Z" fill="white"/>
<path d="M65.7943 80.7809C65.7943 80.7809 52.6443 77.7166 51.8891 74.1639C51.2227 71.0108 47.5798 77.2725 47.5798 77.2725L48.4239 85.7992C48.4239 85.7992 55.6652 89.2631 65.2612 89.2631L66.9938 86.0212C66.9938 86.0212 67.8378 81.3582 65.7943 80.7809Z" fill="#CBCBCB"/>
<path d="M48.5572 213.077C48.5572 213.077 50.6452 217.784 53.7994 220.271C56.9536 222.758 59.1749 221.382 60.8631 225.201C60.8631 225.201 36.3401 225.423 35.5849 225.201C34.7852 224.979 39.8498 213.921 40.7827 213.299C41.7156 212.766 48.5572 213.077 48.5572 213.077Z" fill="#1631A4"/>
<path d="M35.496 212.988C35.496 212.988 43.3149 216.452 50.5119 215.475C50.5119 215.475 61.8848 153.568 61.6627 151.259C61.4406 148.95 52.2 89.2632 52.2 89.2632L27.3217 95.1697C27.3217 95.1697 30.5204 118.085 32.6084 118.44C34.6964 118.796 35.8959 120.128 35.8959 120.128C35.8959 120.128 44.2034 154.812 43.8925 157.876C43.5815 160.94 35.496 212.988 35.496 212.988Z" fill="#01008A"/>
<path d="M54.3769 89.4407C52.8664 91.8388 40.2052 94.5922 32.6972 95.3028C29.8984 95.5692 27.8549 95.5692 27.3217 95.1251C25.3226 93.5708 25.7668 88.6413 25.4559 87.7532C25.1449 86.865 25.4559 87.087 25.678 86.4209C25.9001 85.7547 26.1223 84.4224 25.4559 83.5787C25.1005 83.1346 24.7451 72.7427 24.4785 62.4397C24.212 52.4032 24.0787 42.4554 24.1231 41.7893C24.5674 37.8368 27.766 36.8154 27.766 36.8154C27.766 36.8154 39.3167 38.9027 42.2487 42.8995C56.5982 62.3953 56.4649 86.1544 54.3769 89.4407Z" fill="#6DED02"/>
<path d="M15.1047 111.423C15.1047 111.423 14.2162 123.281 15.1047 124.125C15.9932 124.968 17.326 123.814 18.3033 124.125C19.2807 124.435 20.3469 124.391 20.7911 123.947C21.2354 123.547 21.5464 123.148 22.6126 123.192C23.6788 123.236 24.6562 123.503 25.0116 122.926C25.367 122.348 25.8112 121.549 26.6109 121.416C27.455 121.238 28.1658 121.238 28.2102 120.35C28.2546 119.462 26.3443 115.243 26.3443 115.243L26.4776 117.641C26.4776 117.641 28.0325 117.463 28.5212 116.175C28.9654 114.887 22.0351 108.048 22.0351 108.048L15.1047 111.423Z" fill="white"/>
<path d="M14.9714 112.933C14.9714 112.933 21.5464 109.647 23.5012 109.647C23.5012 109.647 23.7677 106.45 22.2128 106.094L13.6387 109.514C13.6387 109.514 13.6387 112.045 14.9714 112.933Z" fill="#FFD648"/>
<path d="M36.6955 57.1109C33.0526 63.9055 26.4776 77.4504 29.0099 80.0706C31.5421 82.6907 35.4072 81.4917 32.6528 82.7795C29.8984 84.0674 27.3661 84.6892 29.4541 85.7106C31.5421 86.6876 33.1859 86.1547 31.0979 88.1531C29.1876 89.9739 29.7207 94.3704 32.7416 95.3474C29.9428 95.6139 27.8992 95.6139 27.3661 95.1698C25.367 93.6155 25.8112 88.686 25.5003 87.7978C25.1893 86.9096 25.5003 87.1317 25.7224 86.4655C25.9445 85.7994 26.1666 84.4671 25.5003 83.6233C25.1448 83.1792 24.7894 72.7874 24.5229 62.4844L37.7617 45.4312C37.7617 45.4312 40.294 50.2718 36.6955 57.1109Z" fill="#09D191"/>
<path d="M37.2286 52.2701C36.0291 55.2899 34.4742 58.3986 32.8749 61.4184C32.8749 61.4184 32.8749 61.4184 32.8305 61.4628C28.3435 69.8118 23.279 77.7167 23.1901 82.5573C23.0569 89.2188 23.279 104.762 22.2128 106.05C21.1466 107.338 13.6386 109.47 13.6386 109.47C13.6386 109.47 7.73003 78.2052 8.30756 75.8515C8.84067 73.4978 20.4802 47.5182 24.1675 41.7894C27.8548 36.105 41.76 40.8568 37.2286 52.2701Z" fill="white"/>
<path d="M46.2915 159.164L8.79629 166.491C6.97484 166.847 5.19781 165.648 4.84241 163.871L0.0888726 139.979C-0.266532 138.114 0.932959 136.337 2.79883 136.026L41.5379 129.01C43.4038 128.654 45.1808 129.942 45.4474 131.808L48.957 155.345C49.2236 157.121 48.0685 158.808 46.2915 159.164Z" fill="white"/>
<path d="M45.4474 131.808L44.5144 145.219L6.57501 152.591L0.0888726 139.979C-0.266532 138.114 0.932959 136.337 2.79883 136.026L41.5379 129.01C43.4038 128.654 45.1808 129.942 45.4474 131.808Z" fill="#E5E5E6"/>
<path d="M8.8407 149.616L11.8172 148.95L13.6387 157.299L10.5733 157.876L8.8407 149.616Z" fill="#1631A4"/>
<path d="M37.895 143.931L40.8715 143.265L42.693 151.614L39.5832 152.191L37.895 143.931Z" fill="#1631A4"/>
<path d="M67.1715 80.7808C67.1715 80.7808 68.6375 84.2891 66.7272 89.263H65.3056C65.3056 89.263 67.4825 83.7562 65.8387 80.7808H67.1715Z" fill="#FFD648"/>
<path d="M32.8749 61.4629C28.388 69.8119 23.3234 77.7168 23.2346 82.5574C23.1013 89.2188 23.3234 104.762 22.2572 106.05C22.2572 106.05 20.3025 83.7121 18.6143 81.9801C16.9262 80.2925 16.5263 79.2267 19.6361 78.3829C22.6571 77.628 32.2086 62.4843 32.8749 61.4629Z" fill="#E5E5E6"/>
<path d="M123.37 204.373C123.37 204.373 123.281 209.036 116.662 212.944C110.042 216.896 108.621 217.118 108.398 219.649L134.654 218.406L141.851 212.633C141.851 212.633 141.096 206.859 140.74 206.637C140.385 206.415 126.346 204.905 126.346 204.905L123.37 204.373Z" fill="#1631A4"/>
<path d="M135.009 99.6551V209.524C135.009 209.524 131.055 210.057 126.791 209.524C124.347 209.213 121.815 208.503 119.905 207.171C119.905 207.171 116.839 156.322 117.061 153.79C117.284 151.259 124.303 98.9001 124.658 98.8113C125.014 98.6781 135.009 99.6551 135.009 99.6551Z" fill="#1631A4"/>
<path d="M135.009 169.689V209.524C135.009 209.524 131.055 210.057 126.791 209.524C129.19 209.48 129.9 207.748 129.9 207.748C129.9 207.748 123.059 159.919 122.259 157.076C121.504 154.234 126.657 111.557 126.657 111.557L135.009 169.689Z" fill="#002F7A"/>
<path d="M87.5575 85.142L87.5575 85.1421L87.5666 85.1428C87.7642 85.159 87.9739 85.1762 88.1923 85.1942C89.1737 85.275 90.3308 85.3702 91.3649 85.443C91.997 85.4876 92.5871 85.524 93.0656 85.5438C93.5277 85.5628 93.9289 85.5686 94.1554 85.5403L94.1691 85.5386L94.1828 85.5361C94.8028 85.4234 95.4493 84.9922 95.7116 84.3963C95.8513 84.079 95.8835 83.7039 95.7178 83.3345C95.5573 82.9766 95.2403 82.6891 94.811 82.468C94.212 82.1596 94.0513 81.7243 94.0649 81.493C94.0717 81.3788 94.1145 81.3225 94.1492 81.2968C94.1817 81.2726 94.2735 81.2261 94.4773 81.2698C95.0611 81.3948 96.6793 81.9361 98.1939 82.4632C98.9417 82.7235 99.6511 82.9756 100.174 83.1626C100.435 83.2561 100.649 83.3333 100.798 83.3871L100.809 83.391C100.811 83.3983 100.814 83.4058 100.817 83.4134C100.87 83.569 100.944 83.7933 101.028 84.0659C101.197 84.6124 101.401 85.3464 101.549 86.1058C101.699 86.872 101.785 87.6326 101.734 88.2434C101.681 88.88 101.497 89.1926 101.276 89.311L101.276 89.311L101.272 89.3135C101.21 89.3473 100.986 89.4346 100.579 89.5672C100.192 89.6932 99.6811 89.8473 99.0851 90.0166C97.8936 90.355 96.3721 90.7511 94.8373 91.1016C93.3001 91.4526 91.7608 91.7551 90.5298 91.9097C89.9128 91.9871 89.388 92.0254 88.9861 92.0173C88.7851 92.0133 88.6273 91.9978 88.5105 91.9745C88.3953 91.9515 88.3522 91.927 88.3475 91.9243C88.237 91.839 88.0729 91.6102 87.8865 91.1825C87.7073 90.7714 87.537 90.248 87.379 89.6652C87.064 88.5032 86.812 87.1595 86.635 86.1203C86.5523 85.5513 87.0001 85.0863 87.5575 85.142Z" fill="white" stroke="black"/>
<path d="M102.534 82.0245C102.534 82.0245 117.55 77.4503 118.039 76.7841C118.527 76.118 129.9 45.2534 130.167 44.7649C130.434 44.2764 132.744 46.0972 132.744 46.0972L126.302 83.1347L103.867 89.2632L102.534 82.0245Z" fill="#CBCBCB"/>
<path d="M99.9575 82.5573C99.9575 82.5573 101.424 84.8222 101.468 89.7517L103.867 89.2632C103.867 89.2632 104 83.0014 102.534 82.0244L99.9575 82.5573Z" fill="#1631A4"/>
<path d="M136.92 210.723C136.92 210.723 135.809 218.406 129.989 220.626C124.169 222.847 123.37 225.689 123.37 225.689C123.37 225.689 149.892 226.355 150.336 225.689C150.78 225.023 144.739 209.613 144.383 209.524C144.072 209.435 136.92 210.723 136.92 210.723Z" fill="#1631A4"/>
<path d="M146.604 211.611C146.604 211.611 137.897 212.81 131.766 211.611C131.766 211.611 123.281 159.475 123.503 154.634C123.725 149.793 126.702 111.512 126.702 111.512C126.702 111.512 124.703 110.402 124.925 106.805C125.147 103.163 126.791 95.5693 126.791 95.5693L151.314 104.274C151.314 104.274 149.226 122.215 145.05 122.304C145.05 122.304 137.364 153.302 137.408 154.945C137.453 156.632 146.604 211.611 146.604 211.611Z" fill="#01008A"/>
<path d="M156.114 66.7643L156.114 66.7659C155.893 67.6987 155.166 70.1215 154.263 73.129C153.634 75.2237 152.92 77.6021 152.233 79.9582C151.4 82.8155 150.608 85.6316 150.067 87.8389C149.797 88.9413 149.586 89.9012 149.464 90.6423C149.404 91.012 149.363 91.338 149.35 91.6053C149.338 91.8475 149.342 92.1232 149.429 92.3377C149.531 92.5897 149.696 92.867 149.878 93.1499C149.977 93.3045 150.093 93.4791 150.214 93.662C150.311 93.8081 150.412 93.9596 150.51 94.1104C150.969 94.8144 151.473 95.6455 151.86 96.6104C152.599 98.4523 152.924 100.805 151.596 103.687C151.375 103.659 151.055 103.618 150.651 103.565C149.822 103.458 148.637 103.303 147.214 103.113C144.368 102.734 140.573 102.218 136.775 101.669C132.975 101.12 129.176 100.538 126.321 100.027C124.892 99.7718 123.709 99.5358 122.883 99.3321C122.467 99.2296 122.157 99.1391 121.956 99.0631C121.949 99.0604 121.942 99.0577 121.936 99.0551C121.939 99.023 121.942 98.9881 121.946 98.9504C121.968 98.7347 122.001 98.435 122.045 98.0592C122.133 97.3079 122.266 96.2565 122.444 94.9715L122.444 94.9715L122.444 94.9652C122.677 93.1086 123.01 90.7446 123.387 88.0744C123.442 87.686 123.498 87.2911 123.554 86.8904L123.554 86.8898C124.62 79.2538 126.074 69.3991 127.434 61.1276C128.114 56.9913 128.769 53.2548 129.34 50.3909C129.626 48.9585 129.89 47.7493 130.124 46.8196C130.362 45.8705 130.558 45.264 130.698 44.9975L130.7 44.9946C131.65 43.1586 132.804 42.2691 133.692 41.8329C134.139 41.6132 134.525 41.5052 134.794 41.4521C134.929 41.4256 135.034 41.4129 135.102 41.4068C135.136 41.4037 135.161 41.4023 135.175 41.4017L135.189 41.4012C135.189 41.4012 135.189 41.4012 135.189 41.4012C135.19 41.4012 135.19 41.4012 135.19 41.4012L135.192 41.4012L135.187 40.9012C135.192 41.4012 135.192 41.4012 135.192 41.4012L135.193 41.4012L135.195 41.4012L135.204 41.4011L135.242 41.4007L135.387 41.3997C135.516 41.3988 135.704 41.3978 135.945 41.3971C136.426 41.3958 137.117 41.396 137.953 41.4019C139.626 41.4137 141.877 41.4483 144.197 41.5396C146.519 41.631 148.899 41.7789 150.832 42.0158C151.799 42.1343 152.644 42.2739 153.308 42.4366C153.993 42.6046 154.409 42.7801 154.593 42.9294C154.654 42.9809 154.744 43.0941 154.851 43.3068C154.955 43.5154 155.06 43.7893 155.162 44.1279C155.366 44.8051 155.548 45.6967 155.706 46.7461C156.022 48.8422 156.234 51.5124 156.356 54.2353C156.478 56.9562 156.508 59.7181 156.461 61.9938C156.414 64.2916 156.288 66.0376 156.114 66.7643ZM121.777 98.9824C121.777 98.9824 121.778 98.9828 121.779 98.9835C121.778 98.9827 121.777 98.9824 121.777 98.9824Z" fill="white" stroke="black"/>
<path d="M148.115 37.3484L146.604 42.5443L139.763 44.1875L136.298 42.8996L135.454 42.5887C135.454 42.5887 135.409 39.0804 135.409 37.1708C135.409 35.2168 133.055 35.0835 133.055 35.0835L139.097 30.1985L139.407 29.9764L145.894 29.7544L148.115 37.3484Z" fill="white"/>
<path d="M136.609 38.3257C136.653 40.4573 136.475 41.9228 136.342 42.8999L135.498 42.589C135.498 42.589 135.454 39.0806 135.454 37.171C135.454 35.217 133.099 35.0838 133.099 35.0838L139.141 30.1987C140.029 31.2646 141.273 32.8633 141.273 32.8633C141.273 32.8633 136.564 34.24 136.609 38.3257Z" fill="#515BD4"/>
<path d="M136.253 42.189L135.542 42.5887L136.609 43.6989L136.253 42.189Z" fill="#E5E5E6"/>
<path d="M148.115 37.3486L136.253 42.1893L134.165 50.6715L148.959 41.2567L148.115 37.3486Z" fill="#CBCBCB"/>
<path d="M135.542 42.5885L135.498 39.3022L132.788 42.0112L135.542 42.5885Z" fill="#E5E5E5"/>
<path d="M90.6269 88.7403L90.6394 88.7169L90.65 88.6894C90.65 88.6895 90.65 88.6895 90.6501 88.6892L90.6501 88.6892L90.6502 88.689L90.6503 88.6887L90.6515 88.6858L90.6594 88.6665C90.667 88.6483 90.6792 88.62 90.696 88.583C90.7297 88.5089 90.7819 88.4008 90.8531 88.2714C90.9964 88.011 91.2123 87.6724 91.5038 87.3511C92.0846 86.711 92.9239 86.1762 94.0963 86.3808C95.2132 86.5757 96.5648 86.9747 97.8506 87.3542C98.135 87.4382 98.4163 87.5212 98.6911 87.6008C99.4372 87.8171 100.14 88.0095 100.706 88.1158C100.988 88.1688 101.255 88.2041 101.487 88.2061C101.696 88.2078 101.973 88.1849 102.195 88.0323C102.3 87.9606 102.424 87.8394 102.475 87.6518C102.527 87.4593 102.476 87.2899 102.416 87.1754C102.312 86.9788 102.12 86.8321 101.981 86.7361C101.733 86.5642 101.376 86.3731 101.026 86.1859C100.946 86.1433 100.867 86.1009 100.79 86.059C100.344 85.8184 99.932 85.5812 99.6506 85.3487C99.5339 85.2523 99.4597 85.1726 99.4167 85.1116C99.5456 85.0865 99.7449 85.0772 100.023 85.0939C100.627 85.1303 101.445 85.2783 102.349 85.4673C102.738 85.5487 103.15 85.6393 103.561 85.7298C104.076 85.843 104.59 85.9561 105.058 86.0508C105.901 86.2214 106.702 86.3563 107.255 86.3437C107.85 86.3302 108.51 86.2911 109.132 86.2542C109.529 86.2307 109.911 86.208 110.252 86.1935C110.704 86.1742 111.091 86.1683 111.385 86.1867C111.513 86.1947 111.614 86.2067 111.688 86.2211C111.693 86.256 111.698 86.2974 111.702 86.346C111.722 86.5731 111.729 86.8937 111.725 87.2861C111.716 88.0672 111.664 89.0832 111.598 90.0966C111.532 91.1081 111.451 92.1095 111.388 92.8584C111.356 93.2327 111.328 93.5437 111.308 93.761C111.307 93.7738 111.306 93.7864 111.305 93.7986L111.214 93.8352C110.975 93.931 110.633 94.068 110.218 94.2325C109.388 94.5616 108.27 95.0007 107.115 95.4409C105.959 95.8815 104.77 96.3218 103.798 96.6542C103.311 96.8205 102.883 96.9581 102.543 97.0549C102.185 97.157 101.974 97.1985 101.894 97.2015C101.816 97.2044 101.596 97.1767 101.212 97.0943C100.849 97.0165 100.388 96.9011 99.8609 96.7579C98.8069 96.4718 97.5068 96.0801 96.2345 95.6709C94.9619 95.2616 93.7236 94.8369 92.7928 94.4855C92.3261 94.3094 91.9445 94.1546 91.6767 94.0314C91.5547 93.9753 91.4652 93.9297 91.4053 93.8952C91.3906 93.8492 91.3731 93.7897 91.3532 93.7168C91.3098 93.5575 91.2583 93.3475 91.2027 93.101C91.0916 92.6084 90.967 91.9831 90.8602 91.3506C90.7531 90.7165 90.6655 90.0848 90.6262 89.5766C90.6065 89.3216 90.5998 89.1086 90.6067 88.9469C90.6132 88.7932 90.6307 88.7375 90.6291 88.7369C90.6288 88.7368 90.6281 88.738 90.6269 88.7403ZM99.3741 85.0303C99.3742 85.0304 99.3746 85.0317 99.3746 85.0341C99.3739 85.0315 99.3739 85.0303 99.3741 85.0303ZM99.3126 85.1411C99.3094 85.1432 99.3074 85.1442 99.3072 85.1441C99.307 85.144 99.3086 85.1429 99.3126 85.1411Z" fill="white" stroke="black"/>
<path d="M143.361 91.1727C140.874 90.5953 127.768 93.5264 121.948 94.903C122.215 92.7714 122.615 89.9736 123.059 86.8205L147.626 62.04L155.578 59.2866C155.578 59.2866 147.626 82.0687 144.961 84.0227C142.34 85.9767 143.406 87.9752 144.961 88.1972C146.471 88.4637 146.604 91.9276 143.361 91.1727Z" fill="#E5E5E5"/>
<path d="M116.153 93.0948L116.311 84.9413L116.626 84.8154C117.023 84.6567 117.59 84.4295 118.27 84.1556C119.632 83.6079 121.451 82.8734 123.276 82.1262C125.101 81.3793 126.935 80.6188 128.329 80.0196C129.024 79.7202 129.614 79.4593 130.039 79.2596C130.251 79.1602 130.428 79.0729 130.559 79.0017C130.624 78.9666 130.686 78.9307 130.738 78.8958C130.764 78.8786 130.796 78.8563 130.826 78.8298C130.848 78.8114 130.911 78.7567 130.959 78.67C130.984 78.6253 131.012 78.5561 131.031 78.5106L131.032 78.5092C131.057 78.4476 131.09 78.3644 131.13 78.2623C131.21 78.0576 131.321 77.7699 131.457 77.4111C131.732 76.6933 132.113 75.6862 132.569 74.4785C132.782 73.9137 133.012 73.305 133.255 72.6612C134.051 70.5513 134.989 68.0656 135.954 65.5203C138.481 58.8613 141.181 51.8391 142.036 50.0422C142.827 48.3793 144.529 47.1282 146.441 46.4397C148.358 45.749 150.368 45.6671 151.704 46.2055C152.317 46.4524 152.949 47.0324 153.531 47.9096C154.108 48.779 154.607 49.8989 154.97 51.1545C155.7 53.6725 155.865 56.6565 155.101 59.1393C154.72 60.3653 153.534 62.6647 151.92 65.4808C150.316 68.2789 148.318 71.5377 146.348 74.6574C144.379 77.7764 142.44 80.7527 140.956 82.9846C140.213 84.1007 139.585 85.0293 139.124 85.696C138.893 86.0296 138.705 86.2956 138.567 86.4858C138.498 86.5812 138.442 86.6549 138.401 86.7076C138.385 86.7284 138.373 86.7432 138.365 86.7532C138.359 86.7565 138.351 86.7605 138.341 86.7652C138.294 86.7889 138.223 86.8201 138.127 86.8588C137.935 86.9359 137.667 87.0322 137.33 87.1458C136.656 87.3725 135.73 87.6595 134.633 87.9858C132.441 88.638 129.586 89.4419 126.752 90.2244C123.919 91.0067 121.108 91.7669 119.006 92.3315C117.956 92.6138 117.082 92.8473 116.471 93.0101C116.355 93.0409 116.249 93.0692 116.153 93.0948ZM138.354 86.7672C138.355 86.7664 138.356 86.7656 138.356 86.7649L138.354 86.7672Z" fill="white" stroke="black"/>
<path d="M111.375 85.7103C111.375 85.7103 111.864 89.7072 110.797 94.5478L115.862 93.6596C115.862 93.6596 117.906 87.7976 115.818 84.6001L111.375 85.7103Z" fill="#1631A4"/>
<path d="M87.163 64.3938C87.1186 64.1717 87.0741 63.9941 87.0297 63.8608C87.0741 64.0385 87.1186 64.1717 87.163 64.3938Z" fill="#F9A826"/>
<path d="M129.101 17.0532C129.101 17.0532 128.923 31.4863 129.101 33.3959C129.278 35.3056 130.567 35.6164 130.789 35.6608C131.055 35.7052 146.382 31.4419 146.382 31.4419L150.958 23.6259L144.383 13.6781L133.099 10.7915C133.143 10.7915 129.101 14.4775 129.101 17.0532Z" fill="white"/>
<path d="M130.123 15.0107C130.123 15.0107 131.988 13.5452 132.788 15.0107C133.588 16.4762 134.076 20.1622 138.386 20.251C142.695 20.3398 142.651 23.937 142.651 23.937C142.651 23.937 139.763 9.28185 139.452 9.0598C139.185 8.83775 129.9 7.68311 129.9 7.68311L130.123 15.0107Z" fill="#CBCBCB"/>
<path d="M142.606 23.9367C142.606 23.9367 144.339 21.2721 146.071 22.4267C147.804 23.5814 145.583 28.8661 142.162 29.7099C142.162 29.7099 143.317 35.4831 143.539 35.3943C143.761 35.3055 149.314 33.6179 149.314 33.6179C149.314 33.6179 156.956 25.1357 155.356 17.9858C153.757 10.8359 137.364 2.75333 133.677 3.28624C129.989 3.81916 129.323 7.94924 129.323 7.94924C129.323 7.94924 126.124 7.86042 125.591 9.41476C125.058 11.0135 123.148 19.4957 129.101 21.1833C129.101 21.1833 129.012 15.9874 130.123 14.9215C130.123 14.9215 131.011 12.8787 132.166 13.3672C133.321 13.8557 133.366 20.0286 138.386 20.1619C143.406 20.3839 142.606 23.9367 142.606 23.9367Z" fill="#231F20"/>
<path d="M145.716 23.9368C145.716 23.9368 143.806 22.6045 143.006 26.7346C142.961 26.7346 144.028 23.8924 145.716 23.9368Z" fill="#515BD4"/>
</g>
<defs>
<clipPath id="clip0_15_3">
<rect width="157" height="226" fill="white"/>
</clipPath>
</defs>
</svg>
