<svg width="236" height="178" viewBox="0 0 236 178" fill="none" xmlns="http://www.w3.org/2000/svg">
<g clip-path="url(#clip0_1_1472)">
<g opacity="0.2">
<circle cx="118" cy="50" r="50" fill="#6DED02"/>
<circle cx="118" cy="50" r="50" stroke="#88BDDA"/>
</g>
<g clip-path="url(#clip1_1_1472)">
<path d="M113 63C122.941 63 131 54.9411 131 45C131 35.0589 122.941 27 113 27C103.059 27 95 35.0589 95 45C95 54.9411 103.059 63 113 63Z" stroke="black" stroke-miterlimit="10" stroke-linecap="round" stroke-linejoin="round"/>
<path d="M125.8 57.7998L141 72.9998" stroke="black" stroke-miterlimit="10" stroke-linecap="round" stroke-linejoin="round"/>
<path d="M110 47.2002V50.6002L102 54.0002" stroke="black" stroke-miterlimit="10" stroke-linecap="round" stroke-linejoin="round"/>
<path d="M116 47.2002V50.6002L124 54.0002" stroke="black" stroke-miterlimit="10" stroke-linecap="round" stroke-linejoin="round"/>
<path d="M119.4 40.4004C119.4 44.6004 116.6 48.0004 113 48.0004C109.4 48.0004 106.6 44.6004 106.6 40.4004C106.6 36.2004 109.4 32.8004 113 32.8004C116.6 32.6004 119.4 36.0004 119.4 40.4004Z" stroke="black" stroke-miterlimit="10" stroke-linecap="round" stroke-linejoin="round"/>
<path d="M119.4 39.4C119.2 39.4 119 39.4 118.6 39.4C116.6 39.8 115.2 39 114 37C113.4 38.4 111.2 39.4 109.4 39.4C108.6 39.4 107.4 39.2 106.8 38.8" stroke="black" stroke-miterlimit="10" stroke-linecap="round" stroke-linejoin="round"/>
</g>
<path d="M22.3657 143.24C24.9737 143.24 26.7657 141.72 27.3737 139.592L25.9817 139.08C25.5177 140.632 24.3017 141.8 22.3657 141.8C20.3017 141.8 18.3337 140.28 18.3337 137.32C18.3337 134.36 20.3017 132.856 22.3657 132.856C24.2217 132.856 25.4697 133.816 25.9017 135.528L27.3577 135.016C26.7817 132.824 24.9577 131.416 22.3657 131.416C19.5497 131.416 16.7337 133.528 16.7337 137.32C16.7337 141.112 19.4377 143.24 22.3657 143.24ZM32.4372 141.896C31.1572 141.896 30.0372 140.936 30.0372 139.144C30.0372 137.368 31.1572 136.408 32.4372 136.408C33.7172 136.408 34.8372 137.368 34.8372 139.144C34.8372 140.936 33.7172 141.896 32.4372 141.896ZM32.4372 135.064C30.1332 135.064 28.5012 136.808 28.5012 139.144C28.5012 141.496 30.1332 143.24 32.4372 143.24C34.7412 143.24 36.3732 141.496 36.3732 139.144C36.3732 136.808 34.7412 135.064 32.4372 135.064ZM39.9455 143V138.36C39.9455 137.208 40.6655 136.408 41.7375 136.408C42.8895 136.408 43.3695 137.176 43.3695 138.168V143H44.8735V138.344C44.8735 137.24 45.5935 136.408 46.6495 136.408C47.7855 136.408 48.2815 137.16 48.2815 138.168V143H49.7695V138.008C49.7695 135.992 48.4575 135.08 47.1135 135.08C46.1375 135.08 45.1455 135.432 44.5375 136.536C44.1215 135.544 43.1935 135.08 42.2335 135.08C41.3375 135.08 40.3775 135.48 39.8975 136.328V135.304H38.4575V143H39.9455ZM53.3122 138.36C53.3762 137.368 54.1442 136.392 55.4082 136.392C56.7682 136.392 57.4882 137.256 57.5202 138.36H53.3122ZM57.7442 140.36C57.4562 141.224 56.8322 141.912 55.5842 141.912C54.2882 141.912 53.2962 140.952 53.2642 139.576H59.0562C59.0722 139.48 59.0882 139.288 59.0882 139.096C59.0882 136.696 57.7602 135.064 55.3922 135.064C53.4562 135.064 51.7122 136.712 51.7122 139.128C51.7122 141.736 53.5202 143.24 55.5842 143.24C57.3762 143.24 58.6082 142.168 59.0402 140.808L57.7442 140.36ZM68.5601 136.456C69.8721 136.456 70.4321 137.336 70.6241 138.088L71.9841 137.512C71.6641 136.344 70.6081 135.064 68.5601 135.064C66.3681 135.064 64.6881 136.744 64.6881 139.144C64.6881 141.48 66.3361 143.24 68.5761 143.24C70.5761 143.24 71.6801 141.944 72.0481 140.84L70.7201 140.264C70.5441 140.872 70.0161 141.848 68.5761 141.848C67.3281 141.848 66.2241 140.904 66.2241 139.144C66.2241 137.352 67.3441 136.456 68.5601 136.456ZM75.4765 143V131.416H73.9725V143H75.4765ZM81.491 141.896C80.211 141.896 79.091 140.936 79.091 139.144C79.091 137.368 80.211 136.408 81.491 136.408C82.771 136.408 83.891 137.368 83.891 139.144C83.891 140.936 82.771 141.896 81.491 141.896ZM81.491 135.064C79.187 135.064 77.555 136.808 77.555 139.144C77.555 141.496 79.187 143.24 81.491 143.24C83.795 143.24 85.427 141.496 85.427 139.144C85.427 136.808 83.795 135.064 81.491 135.064ZM86.7912 141C86.9192 141.88 87.8152 143.24 89.9272 143.24C91.8312 143.24 92.7432 141.944 92.7432 140.856C92.7432 139.72 92.0072 138.872 90.6152 138.568L89.3672 138.296C88.7752 138.168 88.4872 137.832 88.4872 137.368C88.4872 136.84 88.9992 136.344 89.7672 136.344C90.9832 136.344 91.3032 137.224 91.3672 137.624L92.6952 137.128C92.5352 136.44 91.8792 135.064 89.7672 135.064C88.2632 135.064 87.0312 136.184 87.0312 137.496C87.0312 138.584 87.7512 139.4 88.9512 139.656L90.2632 139.944C90.9032 140.088 91.2552 140.456 91.2552 140.936C91.2552 141.48 90.7912 141.96 89.9432 141.96C88.8552 141.96 88.2472 141.32 88.1512 140.52L86.7912 141ZM95.8035 138.36C95.8675 137.368 96.6355 136.392 97.8995 136.392C99.2595 136.392 99.9795 137.256 100.012 138.36H95.8035ZM100.236 140.36C99.9475 141.224 99.3235 141.912 98.0755 141.912C96.7795 141.912 95.7875 140.952 95.7555 139.576H101.548C101.564 139.48 101.58 139.288 101.58 139.096C101.58 136.696 100.252 135.064 97.8835 135.064C95.9475 135.064 94.2035 136.712 94.2035 139.128C94.2035 141.736 96.0115 143.24 98.0755 143.24C99.8675 143.24 101.1 142.168 101.532 140.808L100.236 140.36ZM107.931 135.224C107.851 135.208 107.643 135.176 107.435 135.176C106.651 135.176 105.691 135.464 105.131 136.648V135.304H103.659V143H105.163V139.144C105.163 137.448 106.011 136.776 107.275 136.776C107.483 136.776 107.707 136.792 107.931 136.824V135.224ZM115.87 132.872H114.494V134.12C114.494 134.792 114.142 135.304 113.31 135.304H112.894V136.664H114.366V140.888C114.366 142.28 115.198 143.08 116.51 143.08C117.022 143.08 117.406 142.984 117.534 142.936V141.656C117.406 141.688 117.134 141.72 116.942 141.72C116.158 141.72 115.87 141.368 115.87 140.664V136.664H117.534V135.304H115.87V132.872ZM122.92 141.896C121.64 141.896 120.52 140.936 120.52 139.144C120.52 137.368 121.64 136.408 122.92 136.408C124.2 136.408 125.32 137.368 125.32 139.144C125.32 140.936 124.2 141.896 122.92 141.896ZM122.92 135.064C120.616 135.064 118.984 136.808 118.984 139.144C118.984 141.496 120.616 143.24 122.92 143.24C125.224 143.24 126.856 141.496 126.856 139.144C126.856 136.808 125.224 135.064 122.92 135.064ZM136.092 131.368C134.7 131.368 133.564 132.296 133.564 134.008V135.304H132.14V136.664H133.564V143H135.116V136.664H138.716V143H140.204V135.304H135.116V134.072C135.116 133.016 135.804 132.776 136.332 132.776C136.716 132.776 136.908 132.84 136.988 132.872V131.528C136.924 131.48 136.604 131.368 136.092 131.368ZM138.38 132.36C138.38 132.952 138.86 133.432 139.452 133.432C140.06 133.432 140.54 132.952 140.54 132.36C140.54 131.752 140.06 131.272 139.452 131.272C138.86 131.272 138.38 131.752 138.38 132.36ZM144.42 138.552C144.42 137.384 145.028 136.44 146.212 136.44C147.556 136.44 148.004 137.304 148.004 138.376V143H149.508V138.12C149.508 136.408 148.596 135.08 146.756 135.08C145.86 135.08 144.948 135.448 144.388 136.408V135.304H142.916V143H144.42V138.552ZM152.957 139.128C152.957 137.544 153.853 136.424 155.229 136.424C156.605 136.424 157.437 137.512 157.437 139.096C157.437 140.68 156.589 141.88 155.213 141.88C153.773 141.88 152.957 140.712 152.957 139.128ZM157.453 141.96C157.453 142.424 157.501 142.824 157.533 143H158.989C158.973 142.872 158.909 142.312 158.909 141.576V131.416H157.421V136.392C157.165 135.768 156.429 135.096 155.069 135.096C152.893 135.096 151.421 136.952 151.421 139.128C151.421 141.416 152.813 143.208 155.069 143.208C156.269 143.208 157.085 142.568 157.453 141.832V141.96ZM163.115 143V135.304H161.627V143H163.115ZM161.291 132.392C161.291 132.984 161.771 133.464 162.363 133.464C162.971 133.464 163.451 132.984 163.451 132.392C163.451 131.784 162.971 131.304 162.363 131.304C161.771 131.304 161.291 131.784 161.291 132.392ZM167.338 138.552C167.338 137.384 167.946 136.44 169.13 136.44C170.474 136.44 170.922 137.304 170.922 138.376V143H172.426V138.12C172.426 136.408 171.514 135.08 169.674 135.08C168.778 135.08 167.866 135.448 167.306 136.408V135.304H165.834V143H167.338V138.552ZM174.418 143.416C174.61 145.064 176.05 146.28 177.97 146.28C180.866 146.28 181.826 144.376 181.826 142.424V135.304H180.338V136.376C179.954 135.608 179.154 135.16 177.97 135.16C175.858 135.16 174.434 136.824 174.434 138.904C174.434 141.08 175.922 142.632 177.97 142.632C179.122 142.632 179.954 142.072 180.322 141.368V142.472C180.322 144.136 179.586 144.968 177.97 144.968C176.802 144.968 175.986 144.152 175.874 143.08L174.418 143.416ZM178.194 141.368C176.834 141.368 175.97 140.408 175.97 138.904C175.97 137.416 176.866 136.44 178.194 136.44C179.49 136.44 180.386 137.416 180.386 138.904C180.386 140.392 179.49 141.368 178.194 141.368ZM190.468 146.216L195.476 135.304H193.86L191.556 140.616L189.156 135.304H187.428L190.74 142.152L188.82 146.216H190.468ZM200.067 141.896C198.787 141.896 197.667 140.936 197.667 139.144C197.667 137.368 198.787 136.408 200.067 136.408C201.347 136.408 202.467 137.368 202.467 139.144C202.467 140.936 201.347 141.896 200.067 141.896ZM200.067 135.064C197.763 135.064 196.131 136.808 196.131 139.144C196.131 141.496 197.763 143.24 200.067 143.24C202.371 143.24 204.003 141.496 204.003 139.144C204.003 136.808 202.371 135.064 200.067 135.064ZM211.081 142.072C211.081 142.392 211.113 142.824 211.145 143H212.585C212.553 142.728 212.505 142.184 212.505 141.576V135.304H211.001V139.944C211.001 141.112 210.393 141.912 209.177 141.912C207.913 141.912 207.433 140.984 207.433 139.928V135.304H205.929V140.152C205.929 141.896 207.017 143.24 208.809 143.24C209.705 143.24 210.665 142.872 211.081 142.072ZM219.503 135.224C219.423 135.208 219.215 135.176 219.007 135.176C218.223 135.176 217.263 135.464 216.703 136.648V135.304H215.231V143H216.735V139.144C216.735 137.448 217.583 136.776 218.847 136.776C219.055 136.776 219.279 136.792 219.503 136.824V135.224ZM68.3553 165.552C68.3553 164.384 68.9633 163.44 70.1473 163.44C71.4913 163.44 71.9393 164.304 71.9393 165.376V170H73.4433V165.12C73.4433 163.408 72.5313 162.08 70.6913 162.08C69.7953 162.08 68.8833 162.448 68.3233 163.408V162.304H66.8513V170H68.3553V165.552ZM76.9716 165.36C77.0356 164.368 77.8036 163.392 79.0676 163.392C80.4276 163.392 81.1476 164.256 81.1796 165.36H76.9716ZM81.4036 167.36C81.1156 168.224 80.4916 168.912 79.2436 168.912C77.9476 168.912 76.9556 167.952 76.9236 166.576H82.7156C82.7316 166.48 82.7476 166.288 82.7476 166.096C82.7476 163.696 81.4196 162.064 79.0516 162.064C77.1156 162.064 75.3716 163.712 75.3716 166.128C75.3716 168.736 77.1796 170.24 79.2436 170.24C81.0356 170.24 82.2676 169.168 82.6996 167.808L81.4036 167.36ZM83.6294 170H85.4214L87.3734 167.168L89.3574 170H91.1654C90.7014 169.376 88.7974 166.704 88.3334 166.08L91.0694 162.304H89.2934L87.4374 165.008L85.5494 162.304H83.7254L86.4934 166.08L83.6294 170ZM94.8629 159.872H93.4869V161.12C93.4869 161.792 93.1349 162.304 92.3029 162.304H91.8869V163.664H93.3589V167.888C93.3589 169.28 94.1909 170.08 95.5029 170.08C96.0149 170.08 96.3989 169.984 96.5269 169.936V168.656C96.3989 168.688 96.1269 168.72 95.9349 168.72C95.1509 168.72 94.8629 168.368 94.8629 167.664V163.664H96.5269V162.304H94.8629V159.872ZM106.086 163.456C107.398 163.456 107.958 164.336 108.15 165.088L109.51 164.512C109.19 163.344 108.134 162.064 106.086 162.064C103.894 162.064 102.214 163.744 102.214 166.144C102.214 168.48 103.862 170.24 106.102 170.24C108.102 170.24 109.206 168.944 109.574 167.84L108.246 167.264C108.07 167.872 107.542 168.848 106.102 168.848C104.854 168.848 103.75 167.904 103.75 166.144C103.75 164.352 104.87 163.456 106.086 163.456ZM116.493 169.072C116.493 169.392 116.525 169.824 116.557 170H117.997C117.965 169.728 117.917 169.184 117.917 168.576V162.304H116.413V166.944C116.413 168.112 115.805 168.912 114.589 168.912C113.325 168.912 112.845 167.984 112.845 166.928V162.304H111.341V167.152C111.341 168.896 112.429 170.24 114.221 170.24C115.117 170.24 116.077 169.872 116.493 169.072ZM119.923 168C120.051 168.88 120.947 170.24 123.059 170.24C124.963 170.24 125.875 168.944 125.875 167.856C125.875 166.72 125.139 165.872 123.747 165.568L122.499 165.296C121.907 165.168 121.619 164.832 121.619 164.368C121.619 163.84 122.131 163.344 122.899 163.344C124.115 163.344 124.435 164.224 124.499 164.624L125.827 164.128C125.667 163.44 125.011 162.064 122.899 162.064C121.395 162.064 120.163 163.184 120.163 164.496C120.163 165.584 120.883 166.4 122.083 166.656L123.395 166.944C124.035 167.088 124.387 167.456 124.387 167.936C124.387 168.48 123.923 168.96 123.075 168.96C121.987 168.96 121.379 168.32 121.283 167.52L119.923 168ZM130.053 159.872H128.677V161.12C128.677 161.792 128.325 162.304 127.493 162.304H127.077V163.664H128.549V167.888C128.549 169.28 129.381 170.08 130.693 170.08C131.206 170.08 131.589 169.984 131.717 169.936V168.656C131.589 168.688 131.318 168.72 131.125 168.72C130.341 168.72 130.053 168.368 130.053 167.664V163.664H131.717V162.304H130.053V159.872ZM137.103 168.896C135.823 168.896 134.703 167.936 134.703 166.144C134.703 164.368 135.823 163.408 137.103 163.408C138.383 163.408 139.503 164.368 139.503 166.144C139.503 167.936 138.383 168.896 137.103 168.896ZM137.103 162.064C134.799 162.064 133.167 163.808 133.167 166.144C133.167 168.496 134.799 170.24 137.103 170.24C139.407 170.24 141.039 168.496 141.039 166.144C141.039 163.808 139.407 162.064 137.103 162.064ZM144.611 170V165.36C144.611 164.208 145.331 163.408 146.403 163.408C147.555 163.408 148.035 164.176 148.035 165.168V170H149.539V165.344C149.539 164.24 150.259 163.408 151.315 163.408C152.451 163.408 152.947 164.16 152.947 165.168V170H154.435V165.008C154.435 162.992 153.123 162.08 151.779 162.08C150.803 162.08 149.811 162.432 149.203 163.536C148.787 162.544 147.859 162.08 146.899 162.08C146.003 162.08 145.043 162.48 144.563 163.328V162.304H143.123V170H144.611ZM157.978 165.36C158.042 164.368 158.81 163.392 160.074 163.392C161.434 163.392 162.154 164.256 162.186 165.36H157.978ZM162.41 167.36C162.122 168.224 161.498 168.912 160.25 168.912C158.954 168.912 157.962 167.952 157.93 166.576H163.722C163.738 166.48 163.754 166.288 163.754 166.096C163.754 163.696 162.426 162.064 160.058 162.064C158.122 162.064 156.378 163.712 156.378 166.128C156.378 168.736 158.186 170.24 160.25 170.24C162.042 170.24 163.274 169.168 163.706 167.808L162.41 167.36ZM170.106 162.224C170.026 162.208 169.818 162.176 169.61 162.176C168.826 162.176 167.866 162.464 167.306 163.648V162.304H165.834V170H167.338V166.144C167.338 164.448 168.186 163.776 169.45 163.776C169.658 163.776 169.882 163.792 170.106 163.824V162.224Z" fill="#000C2D"/>
</g>
<defs>
<clipPath id="clip0_1_1472">
<rect width="236" height="178" fill="white"/>
</clipPath>
<clipPath id="clip1_1_1472">
<rect width="48" height="48" fill="white" transform="translate(94 26)"/>
</clipPath>
</defs>
</svg>
