<svg width="223" height="178" viewBox="0 0 223 178" fill="none" xmlns="http://www.w3.org/2000/svg">
<g clip-path="url(#clip0_1_1481)">
<g opacity="0.1">
<circle cx="111.5" cy="50" r="50" fill="#2F70FE"/>
<circle cx="111.5" cy="50" r="50" stroke="#2F70FE"/>
</g>
<g clip-path="url(#clip1_1_1481)">
<path d="M92.8333 69.167H131.167" stroke="black" stroke-miterlimit="10" stroke-linecap="round" stroke-linejoin="round"/>
<path d="M99.5 60.8335H94.5V69.1668H99.5V60.8335Z" stroke="black" stroke-miterlimit="10" stroke-linecap="round" stroke-linejoin="round"/>
<path d="M109.5 52.5H104.5V69.1667H109.5V52.5Z" stroke="black" stroke-miterlimit="10" stroke-linecap="round" stroke-linejoin="round"/>
<path d="M119.5 55.8335H114.5V69.1668H119.5V55.8335Z" stroke="black" stroke-miterlimit="10" stroke-linecap="round" stroke-linejoin="round"/>
<path d="M129.5 44.167H124.5V69.167H129.5V44.167Z" stroke="black" stroke-miterlimit="10" stroke-linecap="round" stroke-linejoin="round"/>
<path d="M97 50.8333C97.9205 50.8333 98.6667 50.0871 98.6667 49.1667C98.6667 48.2462 97.9205 47.5 97 47.5C96.0795 47.5 95.3333 48.2462 95.3333 49.1667C95.3333 50.0871 96.0795 50.8333 97 50.8333Z" stroke="black" stroke-miterlimit="10" stroke-linecap="round" stroke-linejoin="round"/>
<path d="M107 42.5003C107.92 42.5003 108.667 41.7541 108.667 40.8337C108.667 39.9132 107.92 39.167 107 39.167C106.08 39.167 105.333 39.9132 105.333 40.8337C105.333 41.7541 106.08 42.5003 107 42.5003Z" stroke="black" stroke-miterlimit="10" stroke-linecap="round" stroke-linejoin="round"/>
<path d="M117 45.8333C117.92 45.8333 118.667 45.0871 118.667 44.1667C118.667 43.2462 117.92 42.5 117 42.5C116.08 42.5 115.333 43.2462 115.333 44.1667C115.333 45.0871 116.08 45.8333 117 45.8333Z" stroke="black" stroke-miterlimit="10" stroke-linecap="round" stroke-linejoin="round"/>
<path d="M127 34.1668C127.92 34.1668 128.667 33.4206 128.667 32.5002C128.667 31.5797 127.92 30.8335 127 30.8335C126.08 30.8335 125.333 31.5797 125.333 32.5002C125.333 33.4206 126.08 34.1668 127 34.1668Z" stroke="black" stroke-miterlimit="10" stroke-linecap="round" stroke-linejoin="round"/>
<path d="M98.3333 48.1668L105.667 41.8335" stroke="black" stroke-miterlimit="10" stroke-linecap="round" stroke-linejoin="round"/>
<path d="M108.5 41.3335L115.5 43.6668" stroke="black" stroke-miterlimit="10" stroke-linejoin="round"/>
<path d="M125.833 33.8335L118.167 42.8335" stroke="black" stroke-miterlimit="10" stroke-linecap="round" stroke-linejoin="round"/>
</g>
<path d="M26.0374 143V137.448H20.6134V138.856H24.5494C24.4854 140.024 23.5734 141.816 21.0454 141.816C19.0134 141.816 17.0934 140.328 17.0934 137.32C17.0934 134.312 19.0774 132.856 21.1094 132.856C22.8694 132.856 24.1974 133.816 24.7094 135.448L26.1334 134.84C25.4774 132.792 23.5734 131.416 21.1094 131.416C18.3094 131.416 15.4934 133.48 15.4934 137.32C15.4934 141.16 18.1494 143.24 20.9974 143.24C22.9014 143.24 24.1334 142.296 24.6294 141.4L24.7734 143H26.0374ZM32.7198 135.224C32.6398 135.208 32.4318 135.176 32.2238 135.176C31.4398 135.176 30.4798 135.464 29.9198 136.648V135.304H28.4478V143H29.9518V139.144C29.9518 137.448 30.7998 136.776 32.0638 136.776C32.2718 136.776 32.4958 136.792 32.7198 136.824V135.224ZM37.7007 141.896C36.4207 141.896 35.3007 140.936 35.3007 139.144C35.3007 137.368 36.4207 136.408 37.7007 136.408C38.9807 136.408 40.1007 137.368 40.1007 139.144C40.1007 140.936 38.9807 141.896 37.7007 141.896ZM37.7007 135.064C35.3967 135.064 33.7647 136.808 33.7647 139.144C33.7647 141.496 35.3967 143.24 37.7007 143.24C40.0047 143.24 41.6367 141.496 41.6367 139.144C41.6367 136.808 40.0047 135.064 37.7007 135.064ZM47.9007 135.304L45.9007 141.096L44.1727 135.304H42.5247L45.0527 143H46.6367L48.6367 137.144L50.6847 143H52.2367L54.7327 135.304H53.1487L51.4527 141.096L49.4527 135.304H47.9007ZM62.4922 146.216L67.5002 135.304H65.8842L63.5802 140.616L61.1802 135.304H59.4522L62.7642 142.152L60.8442 146.216H62.4922ZM72.0907 141.896C70.8107 141.896 69.6907 140.936 69.6907 139.144C69.6907 137.368 70.8107 136.408 72.0907 136.408C73.3707 136.408 74.4907 137.368 74.4907 139.144C74.4907 140.936 73.3707 141.896 72.0907 141.896ZM72.0907 135.064C69.7867 135.064 68.1547 136.808 68.1547 139.144C68.1547 141.496 69.7867 143.24 72.0907 143.24C74.3947 143.24 76.0267 141.496 76.0267 139.144C76.0267 136.808 74.3947 135.064 72.0907 135.064ZM83.1048 142.072C83.1048 142.392 83.1368 142.824 83.1688 143H84.6088C84.5768 142.728 84.5288 142.184 84.5288 141.576V135.304H83.0248V139.944C83.0248 141.112 82.4168 141.912 81.2008 141.912C79.9368 141.912 79.4568 140.984 79.4568 139.928V135.304H77.9528V140.152C77.9528 141.896 79.0408 143.24 80.8328 143.24C81.7288 143.24 82.6888 142.872 83.1048 142.072ZM91.5273 135.224C91.4473 135.208 91.2393 135.176 91.0313 135.176C90.2473 135.176 89.2873 135.464 88.7273 136.648V135.304H87.2553V143H88.7593V139.144C88.7593 137.448 89.6073 136.776 90.8713 136.776C91.0793 136.776 91.3033 136.792 91.5273 136.824V135.224ZM98.9383 143V141.88C99.4183 142.712 100.298 143.208 101.434 143.208C103.722 143.208 105.018 141.4 105.018 139.112C105.018 136.872 103.818 135.08 101.482 135.08C100.202 135.08 99.3063 135.704 98.9383 136.392V131.416H97.4503V143H98.9383ZM103.482 139.112C103.482 140.776 102.586 141.864 101.21 141.864C99.8823 141.864 98.9223 140.776 98.9223 139.112C98.9223 137.448 99.8823 136.408 101.21 136.408C102.602 136.408 103.482 137.448 103.482 139.112ZM112.089 142.072C112.089 142.392 112.121 142.824 112.153 143H113.593C113.561 142.728 113.513 142.184 113.513 141.576V135.304H112.009V139.944C112.009 141.112 111.401 141.912 110.185 141.912C108.921 141.912 108.441 140.984 108.441 139.928V135.304H106.937V140.152C106.937 141.896 108.025 143.24 109.817 143.24C110.713 143.24 111.673 142.872 112.089 142.072ZM115.519 141C115.647 141.88 116.543 143.24 118.655 143.24C120.559 143.24 121.471 141.944 121.471 140.856C121.471 139.72 120.735 138.872 119.343 138.568L118.095 138.296C117.503 138.168 117.215 137.832 117.215 137.368C117.215 136.84 117.727 136.344 118.495 136.344C119.711 136.344 120.031 137.224 120.095 137.624L121.423 137.128C121.263 136.44 120.607 135.064 118.495 135.064C116.991 135.064 115.759 136.184 115.759 137.496C115.759 138.584 116.479 139.4 117.679 139.656L118.991 139.944C119.631 140.088 119.983 140.456 119.983 140.936C119.983 141.48 119.519 141.96 118.671 141.96C117.583 141.96 116.975 141.32 116.879 140.52L115.519 141ZM125.121 143V135.304H123.633V143H125.121ZM123.297 132.392C123.297 132.984 123.777 133.464 124.369 133.464C124.977 133.464 125.457 132.984 125.457 132.392C125.457 131.784 124.977 131.304 124.369 131.304C123.777 131.304 123.297 131.784 123.297 132.392ZM129.344 138.552C129.344 137.384 129.952 136.44 131.136 136.44C132.48 136.44 132.928 137.304 132.928 138.376V143H134.432V138.12C134.432 136.408 133.52 135.08 131.68 135.08C130.784 135.08 129.872 135.448 129.312 136.408V135.304H127.84V143H129.344V138.552ZM137.961 138.36C138.025 137.368 138.793 136.392 140.057 136.392C141.417 136.392 142.137 137.256 142.169 138.36H137.961ZM142.393 140.36C142.105 141.224 141.481 141.912 140.233 141.912C138.937 141.912 137.945 140.952 137.913 139.576H143.705C143.721 139.48 143.737 139.288 143.737 139.096C143.737 136.696 142.409 135.064 140.041 135.064C138.105 135.064 136.361 136.712 136.361 139.128C136.361 141.736 138.169 143.24 140.233 143.24C142.025 143.24 143.257 142.168 143.689 140.808L142.393 140.36ZM145.097 141C145.225 141.88 146.121 143.24 148.233 143.24C150.137 143.24 151.049 141.944 151.049 140.856C151.049 139.72 150.313 138.872 148.921 138.568L147.673 138.296C147.081 138.168 146.793 137.832 146.793 137.368C146.793 136.84 147.305 136.344 148.073 136.344C149.289 136.344 149.609 137.224 149.673 137.624L151.001 137.128C150.841 136.44 150.185 135.064 148.073 135.064C146.569 135.064 145.337 136.184 145.337 137.496C145.337 138.584 146.057 139.4 147.257 139.656L148.569 139.944C149.209 140.088 149.561 140.456 149.561 140.936C149.561 141.48 149.097 141.96 148.249 141.96C147.161 141.96 146.553 141.32 146.457 140.52L145.097 141ZM152.491 141C152.619 141.88 153.515 143.24 155.627 143.24C157.531 143.24 158.443 141.944 158.443 140.856C158.443 139.72 157.707 138.872 156.315 138.568L155.067 138.296C154.475 138.168 154.187 137.832 154.187 137.368C154.187 136.84 154.699 136.344 155.467 136.344C156.683 136.344 157.003 137.224 157.067 137.624L158.395 137.128C158.235 136.44 157.579 135.064 155.467 135.064C153.963 135.064 152.731 136.184 152.731 137.496C152.731 138.584 153.451 139.4 154.651 139.656L155.963 139.944C156.603 140.088 156.955 140.456 156.955 140.936C156.955 141.48 156.491 141.96 155.643 141.96C154.555 141.96 153.947 141.32 153.851 140.52L152.491 141ZM169.101 135.304L167.101 141.096L165.373 135.304H163.725L166.253 143H167.837L169.837 137.144L171.885 143H173.437L175.933 135.304H174.349L172.653 141.096L170.653 135.304H169.101ZM179.101 143V135.304H177.613V143H179.101ZM177.277 132.392C177.277 132.984 177.757 133.464 178.349 133.464C178.957 133.464 179.437 132.984 179.437 132.392C179.437 131.784 178.957 131.304 178.349 131.304C177.757 131.304 177.277 131.784 177.277 132.392ZM183.836 132.872H182.46V134.12C182.46 134.792 182.108 135.304 181.276 135.304H180.86V136.664H182.332V140.888C182.332 142.28 183.164 143.08 184.476 143.08C184.988 143.08 185.372 142.984 185.5 142.936V141.656C185.372 141.688 185.1 141.72 184.908 141.72C184.124 141.72 183.836 141.368 183.836 140.664V136.664H185.5V135.304H183.836V132.872ZM189.171 138.472C189.203 137.336 189.811 136.44 190.963 136.44C192.307 136.44 192.755 137.304 192.755 138.376V143H194.259V138.12C194.259 136.408 193.347 135.08 191.507 135.08C190.627 135.08 189.731 135.384 189.171 136.2V131.416H187.667V143H189.171V138.472ZM200.492 140.936C200.492 142.152 201.5 143.24 203.068 143.24C204.444 143.24 205.212 142.504 205.548 141.96C205.548 142.52 205.596 142.808 205.628 143H207.1C207.068 142.808 207.004 142.408 207.004 141.736V137.88C207.004 136.376 206.108 135.064 203.804 135.064C202.14 135.064 200.812 136.088 200.652 137.56L202.092 137.896C202.188 137 202.78 136.344 203.836 136.344C205.004 136.344 205.5 136.968 205.5 137.72C205.5 137.992 205.372 138.232 204.908 138.296L202.828 138.6C201.5 138.792 200.492 139.56 200.492 140.936ZM203.276 141.976C202.508 141.976 202.028 141.432 202.028 140.856C202.028 140.168 202.508 139.8 203.148 139.704L205.5 139.352V139.704C205.5 141.384 204.508 141.976 203.276 141.976ZM71.3128 168C71.4408 168.88 72.3368 170.24 74.4488 170.24C76.3528 170.24 77.2648 168.944 77.2648 167.856C77.2648 166.72 76.5288 165.872 75.1368 165.568L73.8888 165.296C73.2968 165.168 73.0088 164.832 73.0088 164.368C73.0088 163.84 73.5208 163.344 74.2888 163.344C75.5048 163.344 75.8248 164.224 75.8888 164.624L77.2168 164.128C77.0568 163.44 76.4008 162.064 74.2888 162.064C72.7848 162.064 71.5528 163.184 71.5528 164.496C71.5528 165.584 72.2728 166.4 73.4728 166.656L74.7848 166.944C75.4248 167.088 75.7768 167.456 75.7768 167.936C75.7768 168.48 75.3128 168.96 74.4648 168.96C73.3768 168.96 72.7688 168.32 72.6728 167.52L71.3128 168ZM80.9152 170V162.304H79.4272V170H80.9152ZM79.0912 159.392C79.0912 159.984 79.5712 160.464 80.1632 160.464C80.7712 160.464 81.2512 159.984 81.2512 159.392C81.2512 158.784 80.7712 158.304 80.1632 158.304C79.5712 158.304 79.0912 158.784 79.0912 159.392ZM85.1381 165.552C85.1381 164.384 85.7461 163.44 86.9301 163.44C88.2741 163.44 88.7221 164.304 88.7221 165.376V170H90.2261V165.12C90.2261 163.408 89.3141 162.08 87.4741 162.08C86.5781 162.08 85.6661 162.448 85.1061 163.408V162.304H83.6341V170H85.1381V165.552ZM92.2184 170.416C92.4104 172.064 93.8504 173.28 95.7704 173.28C98.6664 173.28 99.6264 171.376 99.6264 169.424V162.304H98.1384V163.376C97.7544 162.608 96.9544 162.16 95.7704 162.16C93.6584 162.16 92.2344 163.824 92.2344 165.904C92.2344 168.08 93.7224 169.632 95.7704 169.632C96.9224 169.632 97.7544 169.072 98.1224 168.368V169.472C98.1224 171.136 97.3864 171.968 95.7704 171.968C94.6024 171.968 93.7864 171.152 93.6744 170.08L92.2184 170.416ZM95.9944 168.368C94.6344 168.368 93.7704 167.408 93.7704 165.904C93.7704 164.416 94.6664 163.44 95.9944 163.44C97.2904 163.44 98.1864 164.416 98.1864 165.904C98.1864 167.392 97.2904 168.368 95.9944 168.368ZM103.692 170V158.416H102.188V170H103.692ZM107.387 165.36C107.451 164.368 108.219 163.392 109.483 163.392C110.843 163.392 111.563 164.256 111.595 165.36H107.387ZM111.819 167.36C111.531 168.224 110.907 168.912 109.659 168.912C108.363 168.912 107.371 167.952 107.339 166.576H113.131C113.147 166.48 113.163 166.288 113.163 166.096C113.163 163.696 111.835 162.064 109.467 162.064C107.531 162.064 105.787 163.712 105.787 166.128C105.787 168.736 107.595 170.24 109.659 170.24C111.451 170.24 112.683 169.168 113.115 167.808L111.819 167.36ZM122.635 163.456C123.947 163.456 124.507 164.336 124.699 165.088L126.059 164.512C125.739 163.344 124.683 162.064 122.635 162.064C120.443 162.064 118.763 163.744 118.763 166.144C118.763 168.48 120.411 170.24 122.651 170.24C124.651 170.24 125.755 168.944 126.123 167.84L124.795 167.264C124.619 167.872 124.091 168.848 122.651 168.848C121.403 168.848 120.299 167.904 120.299 166.144C120.299 164.352 121.419 163.456 122.635 163.456ZM129.551 170V158.416H128.047V170H129.551ZM133.758 170V162.304H132.27V170H133.758ZM131.934 159.392C131.934 159.984 132.414 160.464 133.006 160.464C133.614 160.464 134.094 159.984 134.094 159.392C134.094 158.784 133.614 158.304 133.006 158.304C132.414 158.304 131.934 158.784 131.934 159.392ZM139.709 163.456C141.021 163.456 141.581 164.336 141.773 165.088L143.133 164.512C142.813 163.344 141.757 162.064 139.709 162.064C137.517 162.064 135.837 163.744 135.837 166.144C135.837 168.48 137.485 170.24 139.725 170.24C141.725 170.24 142.829 168.944 143.197 167.84L141.869 167.264C141.693 167.872 141.165 168.848 139.725 168.848C138.477 168.848 137.373 167.904 137.373 166.144C137.373 164.352 138.493 163.456 139.709 163.456ZM152.017 162.304H149.937L146.609 165.712V158.416H145.121V170H146.609V167.68L147.681 166.608L150.193 170H152.081L148.737 165.552L152.017 162.304Z" fill="#000C2D"/>
</g>
<defs>
<clipPath id="clip0_1_1481">
<rect width="223" height="178" fill="white"/>
</clipPath>
<clipPath id="clip1_1_1481">
<rect width="40" height="40" fill="white" transform="translate(92 30)"/>
</clipPath>
</defs>
</svg>
