<svg width="253" height="178" viewBox="0 0 253 178" fill="none" xmlns="http://www.w3.org/2000/svg">
<g clip-path="url(#clip0_1_1471)">
<g opacity="0.1">
<circle cx="126.5" cy="50" r="50" fill="#2F70FE"/>
<circle cx="126.5" cy="50" r="50" stroke="#2F70FE"/>
</g>
<path d="M123.5 46.5C123.5 48.7 121.7 50.5 119.5 50.5H107.5C105.3 50.5 103.5 48.7 103.5 46.5V34.5C103.5 32.3 105.3 30.5 107.5 30.5H119.5C121.7 30.5 123.5 32.3 123.5 34.5V46.5Z" stroke="black" stroke-miterlimit="10" stroke-linecap="round" stroke-linejoin="round"/>
<path d="M103.5 36.5H123.5" stroke="black" stroke-miterlimit="10" stroke-linecap="round" stroke-linejoin="round"/>
<path d="M129.5 46.5C129.5 48.7 131.3 50.5 133.5 50.5H145.5C147.7 50.5 149.5 48.7 149.5 46.5V34.5C149.5 32.3 147.7 30.5 145.5 30.5H133.5C131.3 30.5 129.5 32.3 129.5 34.5V46.5Z" stroke="black" stroke-miterlimit="10" stroke-linecap="round" stroke-linejoin="round"/>
<path d="M149.5 36.5H129.5" stroke="black" stroke-miterlimit="10" stroke-linecap="round" stroke-linejoin="round"/>
<path d="M123.5 72.5C123.5 74.7 121.7 76.5 119.5 76.5H107.5C105.3 76.5 103.5 74.7 103.5 72.5V60.5C103.5 58.3 105.3 56.5 107.5 56.5H119.5C121.7 56.5 123.5 58.3 123.5 60.5V72.5Z" stroke="black" stroke-miterlimit="10" stroke-linecap="round" stroke-linejoin="round"/>
<path d="M103.5 62.5H123.5" stroke="black" stroke-miterlimit="10" stroke-linecap="round" stroke-linejoin="round"/>
<path d="M129.5 72.5C129.5 74.7 131.3 76.5 133.5 76.5H145.5C147.7 76.5 149.5 74.7 149.5 72.5V60.5C149.5 58.3 147.7 56.5 145.5 56.5H133.5C131.3 56.5 129.5 58.3 129.5 60.5V72.5Z" stroke="black" stroke-miterlimit="10" stroke-linecap="round" stroke-linejoin="round"/>
<path d="M149.5 62.5H129.5" stroke="black" stroke-miterlimit="10" stroke-linecap="round" stroke-linejoin="round"/>
<path d="M11.3313 131.656V143H15.2993C17.3793 143 18.8033 141.704 18.8033 139.912C18.8033 138.648 18.0513 137.496 16.7553 137.176C17.7473 136.808 18.4513 135.944 18.4513 134.728C18.4513 132.936 17.1873 131.656 15.0273 131.656H11.3313ZM12.8993 136.616V133.032H14.7873C16.0833 133.032 16.8673 133.736 16.8673 134.808C16.8673 135.864 16.1153 136.616 14.8513 136.616H12.8993ZM12.8993 141.624V137.96H15.1393C16.5153 137.96 17.2033 138.728 17.2033 139.816C17.2033 140.92 16.3393 141.624 15.0753 141.624H12.8993ZM22.0104 138.36C22.0744 137.368 22.8424 136.392 24.1064 136.392C25.4664 136.392 26.1864 137.256 26.2184 138.36H22.0104ZM26.4424 140.36C26.1544 141.224 25.5304 141.912 24.2824 141.912C22.9864 141.912 21.9944 140.952 21.9624 139.576H27.7544C27.7704 139.48 27.7864 139.288 27.7864 139.096C27.7864 136.696 26.4584 135.064 24.0904 135.064C22.1544 135.064 20.4104 136.712 20.4104 139.128C20.4104 141.736 22.2184 143.24 24.2824 143.24C26.0744 143.24 27.3064 142.168 27.7384 140.808L26.4424 140.36ZM33.5463 140.936C33.5463 142.152 34.5543 143.24 36.1223 143.24C37.4983 143.24 38.2663 142.504 38.6023 141.96C38.6023 142.52 38.6503 142.808 38.6823 143H40.1543C40.1223 142.808 40.0583 142.408 40.0583 141.736V137.88C40.0583 136.376 39.1623 135.064 36.8583 135.064C35.1943 135.064 33.8663 136.088 33.7063 137.56L35.1463 137.896C35.2423 137 35.8343 136.344 36.8903 136.344C38.0583 136.344 38.5543 136.968 38.5543 137.72C38.5543 137.992 38.4263 138.232 37.9623 138.296L35.8823 138.6C34.5543 138.792 33.5463 139.56 33.5463 140.936ZM36.3303 141.976C35.5623 141.976 35.0823 141.432 35.0823 140.856C35.0823 140.168 35.5623 139.8 36.2023 139.704L38.5543 139.352V139.704C38.5543 141.384 37.5623 141.976 36.3303 141.976ZM48.2092 146.04V141.96C48.6253 142.648 49.5213 143.208 50.7053 143.208C52.9613 143.208 54.2893 141.432 54.2893 139.144C54.2893 136.904 53.0573 135.128 50.7533 135.128C49.5052 135.128 48.5933 135.736 48.1772 136.504V135.304H46.7212V146.04H48.2092ZM52.7533 139.144C52.7533 140.728 51.8733 141.864 50.4813 141.864C49.1053 141.864 48.1932 140.728 48.1932 139.144C48.1932 137.608 49.1053 136.456 50.4813 136.456C51.8893 136.456 52.7533 137.608 52.7533 139.144ZM55.8856 140.936C55.8856 142.152 56.8936 143.24 58.4616 143.24C59.8376 143.24 60.6056 142.504 60.9416 141.96C60.9416 142.52 60.9896 142.808 61.0216 143H62.4936C62.4616 142.808 62.3976 142.408 62.3976 141.736V137.88C62.3976 136.376 61.5016 135.064 59.1976 135.064C57.5336 135.064 56.2056 136.088 56.0456 137.56L57.4856 137.896C57.5816 137 58.1736 136.344 59.2296 136.344C60.3976 136.344 60.8936 136.968 60.8936 137.72C60.8936 137.992 60.7656 138.232 60.3016 138.296L58.2216 138.6C56.8936 138.792 55.8856 139.56 55.8856 140.936ZM58.6696 141.976C57.9016 141.976 57.4216 141.432 57.4216 140.856C57.4216 140.168 57.9016 139.8 58.5416 139.704L60.8936 139.352V139.704C60.8936 141.384 59.9016 141.976 58.6696 141.976ZM69.1726 135.224C69.0926 135.208 68.8846 135.176 68.6766 135.176C67.8926 135.176 66.9326 135.464 66.3726 136.648V135.304H64.9006V143H66.4046V139.144C66.4046 137.448 67.2526 136.776 68.5166 136.776C68.7246 136.776 68.9486 136.792 69.1726 136.824V135.224ZM73.3579 132.872H71.9819V134.12C71.9819 134.792 71.6299 135.304 70.7979 135.304H70.3819V136.664H71.8539V140.888C71.8539 142.28 72.6859 143.08 73.9979 143.08C74.5099 143.08 74.8939 142.984 75.0219 142.936V141.656C74.8939 141.688 74.6219 141.72 74.4299 141.72C73.6459 141.72 73.3579 141.368 73.3579 140.664V136.664H75.0219V135.304H73.3579V132.872ZM84.6454 141.896C83.3654 141.896 82.2454 140.936 82.2454 139.144C82.2454 137.368 83.3654 136.408 84.6454 136.408C85.9254 136.408 87.0454 137.368 87.0454 139.144C87.0454 140.936 85.9254 141.896 84.6454 141.896ZM84.6454 135.064C82.3414 135.064 80.7094 136.808 80.7094 139.144C80.7094 141.496 82.3414 143.24 84.6454 143.24C86.9494 143.24 88.5814 141.496 88.5814 139.144C88.5814 136.808 86.9494 135.064 84.6454 135.064ZM94.5376 136.664V135.304H92.6816V134.088C92.6816 133.032 93.3696 132.776 93.8976 132.776C94.2816 132.776 94.4736 132.84 94.5536 132.872V131.528C94.4896 131.48 94.1696 131.368 93.6576 131.368C92.2656 131.368 91.1296 132.296 91.1296 134.008V135.304H89.7056V136.664H91.1296V143H92.6816V136.664H94.5376ZM102.486 132.872H101.11V134.12C101.11 134.792 100.758 135.304 99.926 135.304H99.51V136.664H100.982V140.888C100.982 142.28 101.814 143.08 103.126 143.08C103.638 143.08 104.022 142.984 104.15 142.936V141.656C104.022 141.688 103.75 141.72 103.558 141.72C102.774 141.72 102.486 141.368 102.486 140.664V136.664H104.15V135.304H102.486V132.872ZM107.821 138.472C107.853 137.336 108.461 136.44 109.613 136.44C110.957 136.44 111.405 137.304 111.405 138.376V143H112.909V138.12C112.909 136.408 111.997 135.08 110.157 135.08C109.277 135.08 108.381 135.384 107.821 136.2V131.416H106.317V143H107.821V138.472ZM116.438 138.36C116.502 137.368 117.27 136.392 118.534 136.392C119.894 136.392 120.614 137.256 120.646 138.36H116.438ZM120.87 140.36C120.582 141.224 119.958 141.912 118.71 141.912C117.414 141.912 116.422 140.952 116.39 139.576H122.182C122.198 139.48 122.214 139.288 122.214 139.096C122.214 136.696 120.886 135.064 118.518 135.064C116.582 135.064 114.838 136.712 114.838 139.128C114.838 141.736 116.646 143.24 118.71 143.24C120.502 143.24 121.734 142.168 122.166 140.808L120.87 140.36ZM131.75 141.896C130.47 141.896 129.35 140.936 129.35 139.144C129.35 137.368 130.47 136.408 131.75 136.408C133.03 136.408 134.15 137.368 134.15 139.144C134.15 140.936 133.03 141.896 131.75 141.896ZM131.75 135.064C129.446 135.064 127.814 136.808 127.814 139.144C127.814 141.496 129.446 143.24 131.75 143.24C134.054 143.24 135.686 141.496 135.686 139.144C135.686 136.808 134.054 135.064 131.75 135.064ZM139.274 138.552C139.274 137.384 139.882 136.44 141.066 136.44C142.41 136.44 142.858 137.304 142.858 138.376V143H144.362V138.12C144.362 136.408 143.45 135.08 141.61 135.08C140.714 135.08 139.802 135.448 139.242 136.408V135.304H137.77V143H139.274V138.552ZM148.418 143V131.416H146.914V143H148.418ZM153.057 146.216L158.065 135.304H156.449L154.145 140.616L151.745 135.304H150.017L153.329 142.152L151.409 146.216H153.057ZM176.008 143H177.704L173.192 131.656H171.384L166.872 143H168.552L169.752 139.832H174.776L176.008 143ZM172.248 133.288L174.216 138.376H170.312L172.248 133.288ZM180.812 143V131.416H179.308V143H180.812ZM185.035 143V131.416H183.531V143H185.035ZM191.529 139.064V137.752H187.193V139.064H191.529ZM195.454 143V131.656H193.854V143H195.454ZM199.843 138.552C199.843 137.384 200.451 136.44 201.635 136.44C202.979 136.44 203.427 137.304 203.427 138.376V143H204.931V138.12C204.931 136.408 204.019 135.08 202.179 135.08C201.283 135.08 200.371 135.448 199.811 136.408V135.304H198.339V143H199.843V138.552ZM211.259 139.064V137.752H206.923V139.064H211.259ZM214.464 137.32C214.464 134.36 216.448 132.856 218.56 132.856C220.672 132.856 222.656 134.36 222.656 137.32C222.656 140.28 220.672 141.8 218.56 141.8C216.448 141.8 214.464 140.28 214.464 137.32ZM212.864 137.32C212.864 141.112 215.712 143.24 218.56 143.24C221.408 143.24 224.256 141.112 224.256 137.32C224.256 133.528 221.408 131.416 218.56 131.416C215.712 131.416 212.864 133.528 212.864 137.32ZM227.917 138.552C227.917 137.384 228.525 136.44 229.709 136.44C231.053 136.44 231.501 137.304 231.501 138.376V143H233.005V138.12C233.005 136.408 232.093 135.08 230.253 135.08C229.357 135.08 228.445 135.448 227.885 136.408V135.304H226.413V143H227.917V138.552ZM236.533 138.36C236.597 137.368 237.365 136.392 238.629 136.392C239.989 136.392 240.709 137.256 240.741 138.36H236.533ZM240.965 140.36C240.677 141.224 240.053 141.912 238.805 141.912C237.509 141.912 236.517 140.952 236.485 139.576H242.277C242.293 139.48 242.309 139.288 242.309 139.096C242.309 136.696 240.981 135.064 238.613 135.064C236.677 135.064 234.933 136.712 234.933 139.128C234.933 141.736 236.741 143.24 238.805 143.24C240.597 143.24 241.829 142.168 242.261 140.808L240.965 140.36ZM44.3402 173.04V168.96C44.7562 169.648 45.6522 170.208 46.8362 170.208C49.0922 170.208 50.4202 168.432 50.4202 166.144C50.4202 163.904 49.1882 162.128 46.8842 162.128C45.6362 162.128 44.7242 162.736 44.3082 163.504V162.304H42.8522V173.04H44.3402ZM48.8842 166.144C48.8842 167.728 48.0042 168.864 46.6122 168.864C45.2362 168.864 44.3242 167.728 44.3242 166.144C44.3242 164.608 45.2362 163.456 46.6122 163.456C48.0202 163.456 48.8842 164.608 48.8842 166.144ZM54.0006 170V158.416H52.4966V170H54.0006ZM56.2391 167.936C56.2391 169.152 57.2471 170.24 58.8151 170.24C60.1911 170.24 60.9591 169.504 61.2951 168.96C61.2951 169.52 61.3431 169.808 61.3751 170H62.8471C62.8151 169.808 62.7511 169.408 62.7511 168.736V164.88C62.7511 163.376 61.8551 162.064 59.5511 162.064C57.8871 162.064 56.5591 163.088 56.3991 164.56L57.8391 164.896C57.9351 164 58.5271 163.344 59.5831 163.344C60.7511 163.344 61.2471 163.968 61.2471 164.72C61.2471 164.992 61.1191 165.232 60.6551 165.296L58.5751 165.6C57.2471 165.792 56.2391 166.56 56.2391 167.936ZM59.0231 168.976C58.2551 168.976 57.7751 168.432 57.7751 167.856C57.7751 167.168 58.2551 166.8 58.8951 166.704L61.2471 166.352V166.704C61.2471 168.384 60.2551 168.976 59.0231 168.976ZM67.2701 159.872H65.8941V161.12C65.8941 161.792 65.5421 162.304 64.7101 162.304H64.2941V163.664H65.7661V167.888C65.7661 169.28 66.5981 170.08 67.9101 170.08C68.4221 170.08 68.8061 169.984 68.9341 169.936V168.656C68.8061 168.688 68.5341 168.72 68.3421 168.72C67.5581 168.72 67.2701 168.368 67.2701 167.664V163.664H68.9341V162.304H67.2701V159.872ZM74.9736 163.664V162.304H73.1176V161.088C73.1176 160.032 73.8056 159.776 74.3336 159.776C74.7176 159.776 74.9096 159.84 74.9896 159.872V158.528C74.9256 158.48 74.6056 158.368 74.0936 158.368C72.7016 158.368 71.5656 159.296 71.5656 161.008V162.304H70.1416V163.664H71.5656V170H73.1176V163.664H74.9736ZM79.7294 168.896C78.4494 168.896 77.3294 167.936 77.3294 166.144C77.3294 164.368 78.4494 163.408 79.7294 163.408C81.0094 163.408 82.1294 164.368 82.1294 166.144C82.1294 167.936 81.0094 168.896 79.7294 168.896ZM79.7294 162.064C77.4254 162.064 75.7934 163.808 75.7934 166.144C75.7934 168.496 77.4254 170.24 79.7294 170.24C82.0334 170.24 83.6654 168.496 83.6654 166.144C83.6654 163.808 82.0334 162.064 79.7294 162.064ZM90.0217 162.224C89.9417 162.208 89.7337 162.176 89.5257 162.176C88.7417 162.176 87.7817 162.464 87.2217 163.648V162.304H85.7497V170H87.2537V166.144C87.2537 164.448 88.1017 163.776 89.3657 163.776C89.5737 163.776 89.7977 163.792 90.0217 163.824V162.224ZM93.2727 170V165.36C93.2727 164.208 93.9927 163.408 95.0647 163.408C96.2167 163.408 96.6967 164.176 96.6967 165.168V170H98.2007V165.344C98.2007 164.24 98.9207 163.408 99.9767 163.408C101.113 163.408 101.609 164.16 101.609 165.168V170H103.097V165.008C103.097 162.992 101.785 162.08 100.441 162.08C99.4647 162.08 98.4727 162.432 97.8647 163.536C97.4487 162.544 96.5207 162.08 95.5607 162.08C94.6647 162.08 93.7047 162.48 93.2247 163.328V162.304H91.7847V170H93.2727ZM113.695 163.664V162.304H111.839V161.088C111.839 160.032 112.527 159.776 113.055 159.776C113.439 159.776 113.631 159.84 113.711 159.872V158.528C113.647 158.48 113.327 158.368 112.815 158.368C111.423 158.368 110.287 159.296 110.287 161.008V162.304H108.863V163.664H110.287V170H111.839V163.664H113.695ZM118.451 168.896C117.171 168.896 116.051 167.936 116.051 166.144C116.051 164.368 117.171 163.408 118.451 163.408C119.731 163.408 120.851 164.368 120.851 166.144C120.851 167.936 119.731 168.896 118.451 168.896ZM118.451 162.064C116.147 162.064 114.515 163.808 114.515 166.144C114.515 168.496 116.147 170.24 118.451 170.24C120.755 170.24 122.387 168.496 122.387 166.144C122.387 163.808 120.755 162.064 118.451 162.064ZM128.744 162.224C128.664 162.208 128.456 162.176 128.248 162.176C127.464 162.176 126.504 162.464 125.944 163.648V162.304H124.472V170H125.976V166.144C125.976 164.448 126.824 163.776 128.088 163.776C128.296 163.776 128.52 163.792 128.744 163.824V162.224ZM136.427 170V158.656H134.827V170H136.427ZM147.343 160.112V158.656H138.191V160.112H141.983V170H143.551V160.112H147.343ZM152.38 168C152.508 168.88 153.404 170.24 155.516 170.24C157.42 170.24 158.332 168.944 158.332 167.856C158.332 166.72 157.596 165.872 156.204 165.568L154.956 165.296C154.364 165.168 154.076 164.832 154.076 164.368C154.076 163.84 154.588 163.344 155.356 163.344C156.572 163.344 156.892 164.224 156.956 164.624L158.284 164.128C158.124 163.44 157.468 162.064 155.356 162.064C153.852 162.064 152.62 163.184 152.62 164.496C152.62 165.584 153.34 166.4 154.54 166.656L155.852 166.944C156.492 167.088 156.844 167.456 156.844 167.936C156.844 168.48 156.38 168.96 155.532 168.96C154.444 168.96 153.836 168.32 153.74 167.52L152.38 168ZM161.392 165.36C161.456 164.368 162.224 163.392 163.488 163.392C164.848 163.392 165.568 164.256 165.6 165.36H161.392ZM165.824 167.36C165.536 168.224 164.912 168.912 163.664 168.912C162.368 168.912 161.376 167.952 161.344 166.576H167.136C167.152 166.48 167.168 166.288 167.168 166.096C167.168 163.696 165.84 162.064 163.472 162.064C161.536 162.064 159.792 163.712 159.792 166.128C159.792 168.736 161.6 170.24 163.664 170.24C165.456 170.24 166.688 169.168 167.12 167.808L165.824 167.36ZM173.52 162.224C173.44 162.208 173.232 162.176 173.024 162.176C172.24 162.176 171.28 162.464 170.72 163.648V162.304H169.248V170H170.752V166.144C170.752 164.448 171.6 163.776 172.864 163.776C173.072 163.776 173.296 163.792 173.52 163.824V162.224ZM182.109 162.304H180.493L178.285 168.24L176.093 162.304H174.397L177.517 170H179.037L182.109 162.304ZM185.196 170V162.304H183.708V170H185.196ZM183.372 159.392C183.372 159.984 183.852 160.464 184.444 160.464C185.052 160.464 185.532 159.984 185.532 159.392C185.532 158.784 185.052 158.304 184.444 158.304C183.852 158.304 183.372 158.784 183.372 159.392ZM191.147 163.456C192.459 163.456 193.019 164.336 193.211 165.088L194.571 164.512C194.251 163.344 193.195 162.064 191.147 162.064C188.955 162.064 187.275 163.744 187.275 166.144C187.275 168.48 188.923 170.24 191.163 170.24C193.163 170.24 194.267 168.944 194.635 167.84L193.307 167.264C193.131 167.872 192.603 168.848 191.163 168.848C189.915 168.848 188.811 167.904 188.811 166.144C188.811 164.352 189.931 163.456 191.147 163.456ZM197.458 165.36C197.522 164.368 198.29 163.392 199.554 163.392C200.914 163.392 201.634 164.256 201.666 165.36H197.458ZM201.89 167.36C201.602 168.224 200.978 168.912 199.73 168.912C198.434 168.912 197.442 167.952 197.41 166.576H203.202C203.218 166.48 203.234 166.288 203.234 166.096C203.234 163.696 201.906 162.064 199.538 162.064C197.602 162.064 195.858 163.712 195.858 166.128C195.858 168.736 197.666 170.24 199.73 170.24C201.522 170.24 202.754 169.168 203.186 167.808L201.89 167.36ZM204.593 168C204.721 168.88 205.617 170.24 207.729 170.24C209.633 170.24 210.545 168.944 210.545 167.856C210.545 166.72 209.809 165.872 208.417 165.568L207.169 165.296C206.577 165.168 206.289 164.832 206.289 164.368C206.289 163.84 206.801 163.344 207.569 163.344C208.785 163.344 209.105 164.224 209.169 164.624L210.497 164.128C210.337 163.44 209.681 162.064 207.569 162.064C206.065 162.064 204.833 163.184 204.833 164.496C204.833 165.584 205.553 166.4 206.753 166.656L208.065 166.944C208.705 167.088 209.057 167.456 209.057 167.936C209.057 168.48 208.593 168.96 207.745 168.96C206.657 168.96 206.049 168.32 205.953 167.52L204.593 168Z" fill="#000C2D"/>
</g>
<defs>
<clipPath id="clip0_1_1471">
<rect width="253" height="178" fill="white"/>
</clipPath>
</defs>
</svg>
